<svg xmlns="http://www.w3.org/2000/svg" xmlns:xlink="http://www.w3.org/1999/xlink" viewBox="0,0,256,256" width="24px" height="24px"><g fill-opacity="0" fill="#dddddd" fill-rule="nonzero" stroke="none" stroke-width="1" stroke-linecap="butt" stroke-linejoin="miter" stroke-miterlimit="10" stroke-dasharray="" stroke-dashoffset="0" font-family="none" font-weight="none" font-size="none" text-anchor="none" style="mix-blend-mode: normal"><path d="M0,256v-256h256v256z" id="bgRectangle"></path></g><g fill="#ffffff" fill-rule="nonzero" stroke="none" stroke-width="1" stroke-linecap="butt" stroke-linejoin="miter" stroke-miterlimit="10" stroke-dasharray="" stroke-dashoffset="0" font-family="none" font-weight="none" font-size="none" text-anchor="none" style="mix-blend-mode: normal"><g transform="scale(10.66667,10.66667)"><path d="M12,2c-0.26712,0.00003 -0.52312,0.10694 -0.71094,0.29688l-10.08594,8.80078c-0.12774,0.09426 -0.20313,0.24359 -0.20312,0.40234c0,0.27614 0.22386,0.5 0.5,0.5h2.5v8c0,0.552 0.448,1 1,1h4c0.552,0 1,-0.448 1,-1v-6h4v6c0,0.552 0.448,1 1,1h4c0.552,0 1,-0.448 1,-1v-8h2.5c0.27614,0 0.5,-0.22386 0.5,-0.5c0.00001,-0.15876 -0.07538,-0.30808 -0.20312,-0.40234l-10.08008,-8.79492c-0.00194,-0.00196 -0.0039,-0.00391 -0.00586,-0.00586c-0.18782,-0.18994 -0.44382,-0.29684 -0.71094,-0.29687z"></path></g></g></svg>